<?xml version="1.0" encoding="UTF-8" standalone="no"?>
<!-- Created with Inkscape (http://www.inkscape.org/) -->

<svg
   width="50"
   height="50"
   viewBox="0 0 13.229166 13.229167"
   version="1.1"
   id="svg270"
   inkscape:version="1.1.2 (76b9e6a115, 2022-02-25)"
   sodipodi:docname="Logo.svg"
   xmlns:inkscape="http://www.inkscape.org/namespaces/inkscape"
   xmlns:sodipodi="http://sodipodi.sourceforge.net/DTD/sodipodi-0.dtd"
   xmlns="http://www.w3.org/2000/svg"
   xmlns:svg="http://www.w3.org/2000/svg">
  <sodipodi:namedview
     id="namedview272"
     pagecolor="#ffffff"
     bordercolor="#666666"
     borderopacity="1.0"
     inkscape:pageshadow="2"
     inkscape:pageopacity="0.0"
     inkscape:pagecheckerboard="0"
     inkscape:document-units="mm"
     showgrid="false"
     units="px"
     inkscape:zoom="12.443434"
     inkscape:cx="30.25692"
     inkscape:cy="26.720919"
     inkscape:window-width="1852"
     inkscape:window-height="1016"
     inkscape:window-x="0"
     inkscape:window-y="0"
     inkscape:window-maximized="1"
     inkscape:current-layer="layer1" />
  <defs
     id="defs267" />
  <g
     inkscape:label="Layer 1"
     inkscape:groupmode="layer"
     id="layer1">
    <path
       d="m 11.583047,8.6704483 c 0.04818,0.0202 0.09639,0.0302 0.144568,0.0302 0.07707,0 0.144542,-0.0202 0.192723,-0.0706 0.04818,-0.0505 0.08673,-0.12107 0.106018,-0.21185 0.01926,-0.0908 0.03852,-0.20177 0.03852,-0.32282 v -4.01489 c 0,-0.12105 -0.0096,-0.24212 -0.03852,-0.36317 -0.01929,-0.12105 -0.05784,-0.23201 -0.106018,-0.34298 -0.04818,-0.11094 -0.11565,-0.21182 -0.192723,-0.30263 -0.0771,-0.0908 -0.173461,-0.17148 -0.279479,-0.24209 l -0.298715,-0.18158 c -0.106018,-0.0706 -0.202379,-0.10088 -0.279479,-0.10088 -0.07707,0 -0.144542,0.0202 -0.192722,0.0706 -0.04818,0.0505 -0.08676,0.12108 -0.106019,0.21186 -0.01926,0.0908 -0.03855,0.20174 -0.03855,0.32279 v 4.025 c 0,0.12105 0.0097,0.24209 0.03855,0.36314 0.01926,0.12107 0.05784,0.23201 0.106019,0.343 0.04818,0.11097 0.115649,0.21183 0.192722,0.30264 0.06747,0.0807 0.144542,0.15131 0.231299,0.21185 l -0.481833,-0.28247 -6.9094885,3.2179697 0.597482,0.35306 1.358768,-0.62543 1.445498,0.85744 -1.060026,0.80703 0.616743,0.36317 5.3964945,-4.1359697 z m -4.0473845,2.8951497 -1.320218,-0.78682 4.3653875,-2.0377397 0.481859,0.28247 z m 3.9124735,-3.5912197 -0.298715,-0.18158 c -0.06747,-0.0404 -0.106018,-0.0908 -0.134937,-0.1614 -0.02889,-0.0605 -0.03852,-0.13115 -0.03852,-0.19166 v -4.03508 c 0,-0.0605 0.0096,-0.11097 0.03852,-0.15132 0.02892,-0.0302 0.06747,-0.0302 0.134937,0.0101 l 0.298715,0.18156 c 0.05781,0.0404 0.106018,0.0908 0.134911,0.15131 0.02892,0.0706 0.03855,0.13116 0.03855,0.19167 v 4.02497 c 0,0.0606 -0.0096,0.11099 -0.03855,0.15134 -0.03852,0.0504 -0.0771,0.0404 -0.134911,0.0101 z"
       fill="#76ff6a"
       id="path274"
       style="stroke-width:0.264583" />
    <path
       d="m 9.8771195,7.5910583 c 0.08676,0 0.1445685,-0.0202 0.2023805,-0.0706 0.04818,-0.0504 0.08673,-0.12105 0.115622,-0.21185 0.02892,-0.0908 0.03855,-0.20175 0.03855,-0.32279 v -4.06533 c 0,-0.12105 -0.0096,-0.24213 -0.03855,-0.36317 -0.02889,-0.12105 -0.05781,-0.23202 -0.115622,-0.34299 -0.04818,-0.11096 -0.1156235,-0.21184 -0.2023805,-0.30263 -0.0867,-0.0908 -0.183092,-0.18157 -0.298741,-0.2421 l -0.318003,-0.18158 c -0.115649,-0.0706 -0.221615,-0.10087 -0.298741,-0.11096 -0.08673,0 -0.154173,0.0202 -0.202353,0.0706 -0.04821,0.0504 -0.08673,0.12105 -0.11565,0.21184 -0.02889,0.0908 -0.03852,0.20175 -0.03852,0.32281 v 4.05525 c 0,0.12105 0.0096,0.2421 0.03852,0.36315 0.02892,0.12107 0.05781,0.24212 0.11565,0.343 0.04818,0.11097 0.115623,0.21183 0.202353,0.31271 0.05781,0.0605 0.12528,0.12105 0.192749,0.17148 l -0.105992,-0.0605 -2.20681,1.31141 -0.01926,-1.46273 0.982927,-0.5851 0.636032,-4.76138 v -0.6557 L 6.9186825,0.07573828 v 0.6557 l 1.040765,0.63553002 -0.751655,4.70087 -1.638247,0.9684 0.0097,-0.0101 0.318002,-0.21182 c 0.11565,-0.0807 0.221615,-0.1715 0.298741,-0.28247 0.0867,-0.11097 0.154173,-0.22193 0.202354,-0.34298 0.04821,-0.12105 0.08673,-0.2522 0.115649,-0.39344 0.02889,-0.1412 0.03852,-0.27236 0.03852,-0.41357 V 0.82220828 c 0,-0.13114 -0.0096,-0.25219 -0.03852,-0.36315 -0.02892,-0.10088 -0.05781,-0.18158 -0.115649,-0.24211 -0.04818,-0.0605 -0.11565,-0.0807 -0.202354,-0.0807 -0.08676,0 -0.183091,0.0403 -0.298741,0.12105 l -0.318002,0.21184 c -0.11565,0.0807 -0.221668,0.17149 -0.298741,0.28246 -0.08676,0.11096 -0.1542,0.22193 -0.20238,0.34298002 -0.04818,0.12105 -0.08673,0.2522 -0.115623,0.39342 -0.02892,0.14123 -0.03855,0.27237 -0.03855,0.4136 v 4.56971 c 0,0.14124 0.0096,0.2522 0.03855,0.36317 0.02889,0.10089 0.05781,0.18158 0.115623,0.24209 0.04818,0.0605 0.115623,0.0807 0.20238,0.0807 0.05781,0 0.134911,-0.0202 0.211984,-0.0706 l -1.840593,1.09953 0.308364,-0.2118 c 0.11565,-0.0807 0.212037,-0.1715 0.298741,-0.28247 0.08676,-0.11097 0.144569,-0.22193 0.20238,-0.343 0.04818,-0.12105 0.08673,-0.25218 0.115623,-0.39341 0.01929,-0.14121 0.03855,-0.27237 0.03855,-0.41357 v -4.54957 c 0,-0.13114 -0.0096,-0.2522 -0.03855,-0.36316 -0.01926,-0.10088 -0.05781,-0.18158 -0.115623,-0.2421 -0.04818,-0.0605 -0.115623,-0.0807 -0.20238,-0.0807 -0.07707,0 -0.183091,0.0404 -0.298741,0.12106 l -0.308364,0.21184 c -0.115644,0.0807 -0.211997,0.17149 -0.298735,0.28245 -0.08672,0.11097 -0.144545,0.22193 -0.202364,0.34298 -0.04818,0.12105 -0.08673,0.2522 -0.106003,0.39342 -0.01928,0.14125 -0.03855,0.27236 -0.03855,0.41362 v 4.55961 c 0,0.14124 0.0096,0.25221 0.03855,0.36317 0.01927,0.10089 0.05782,0.18159 0.106002,0.2421 0.04818,0.0605 0.115647,0.0807 0.202364,0.0807 0.05783,0 0.115644,-0.0202 0.192728,-0.0605 l -1.908045,1.11972 c 0.0096,-0.0101 0.02891,-0.0202 0.03855,-0.0303 l 0.2891,-0.20174 c 0.115639,-0.0807 0.212005,-0.17148 0.298733,-0.28247 0.0771,-0.11094 0.144552,-0.22191 0.202372,-0.35306 0.04818,-0.12105 0.08673,-0.26226 0.115638,-0.39341 0.01928,-0.14121 0.03855,-0.28247 0.03855,-0.4136 v -2.45131 c 0,-0.14121 -0.0096,-0.26228 -0.03855,-0.36317 -0.02891,-0.11094 -0.05782,-0.19166 -0.115639,-0.24209 -0.04818,-0.0605 -0.115642,-0.0807 -0.202372,-0.0807 -0.07709,0 -0.183094,0.0403 -0.298733,0.12105 l -0.472197,0.32282 v -1.37192 l 1.050396,-0.71623 v -0.72633 l -1.503318,1.02894 v 2.81447 l 0.934755,-0.63552 c 0.06746,-0.0504 0.115639,-0.0504 0.14455,-0.0202 0.02891,0.0403 0.03855,0.0908 0.03855,0.18156 v 2.45134 c 0,0.0807 -0.0096,0.15129 -0.03855,0.22191 -0.02891,0.0706 -0.07709,0.13115 -0.14455,0.18158 l -0.2891,0.20174 c -0.06746,0.0504 -0.115639,0.0504 -0.14455,0.0101 -0.02891,-0.0403 -0.03855,-0.10085 -0.03855,-0.17147 v -1.8057 l -0.462558,0.31271 v 1.80573 c 0,0.1412 0.0096,0.26225 0.03855,0.36314 0.01927,0.11096 0.05782,0.19166 0.106003,0.24209 0.04818,0.0605 0.11564,0.0807 0.202369,0.0807 0.05782,0 0.134914,-0.0202 0.212008,-0.0706 l -0.558927,0.34301 0.607108,0.3530597 4.365419,-2.5925197 0.05781,1.43242 -3.180101,1.8863997 0.607102,0.35309 6.157839,-3.6618297 c 0.07707,0.0706 0.154172,0.0908 0.221615,0.0908 z m -6.369818,-0.11097 c -0.02891,-0.0404 -0.03854,-0.0908 -0.03854,-0.1715 v -4.55962 c 0,-0.0706 0.0096,-0.15132 0.03854,-0.22195 0.02891,-0.0706 0.07711,-0.13112 0.144549,-0.18157 l 0.308364,-0.21184 c 0.06747,-0.0404 0.106019,-0.0504 0.134938,-0.0101 0.02889,0.0403 0.03852,0.0908 0.03852,0.1715 v 4.55964 c 0,0.0706 -0.0096,0.15131 -0.03852,0.2219 -0.02892,0.0706 -0.0771,0.13116 -0.134938,0.17151 l -0.308364,0.21185 c -0.06745,0.0504 -0.115644,0.0605 -0.14455,0.0202 z m 1.927331,-1.14999 c -0.02889,-0.0403 -0.03852,-0.0908 -0.03852,-0.1715 v -4.56972 c 0,-0.0706 0.0096,-0.15132 0.03852,-0.22193 0.02892,-0.0706 0.0771,-0.13114 0.144568,-0.18158 l 0.318003,-0.21184002 c 0.06744,-0.0404 0.11565,-0.0504 0.144542,-0.0101 0.02892,0.0404 0.03855,0.0908 0.03855,0.17149002 v 4.56973 c 0,0.0706 -0.0096,0.15131 -0.03855,0.22193 -0.02889,0.0706 -0.0771,0.13115 -0.144542,0.1715 l -0.318002,0.21183 c -0.06747,0.0504 -0.11565,0.0605 -0.144569,0.0202 z m 3.825743,0.3329 c -0.06744,-0.0404 -0.115649,-0.0908 -0.144542,-0.16139 -0.02892,-0.0606 -0.03855,-0.13116 -0.03855,-0.19169 v -4.05525 c 0,-0.0706 0.0096,-0.12106 0.03855,-0.15132 0.02889,-0.0303 0.0771,-0.0303 0.144542,0.0101 l 0.318003,0.18159 c 0.06747,0.0404 0.106018,0.0908 0.134937,0.16139 0.02889,0.0706 0.03852,0.13115 0.03852,0.20175 v 4.05524 c 0,0.0706 -0.0096,0.11099 -0.03852,0.15134 -0.02892,0.0303 -0.0771,0.0303 -0.134937,-0.0101 z"
       fill="#76ff6a"
       id="path276"
       style="stroke-width:0.264583" />
  </g>
</svg>
